<svg xmlns="http://www.w3.org/2000/svg" viewBox="0 0 420 760">
  <defs>
    <linearGradient id="trailStem" x1="0" x2="1" y1="0" y2="1">
      <stop offset="0" stop-color="#8eb765"/>
      <stop offset="1" stop-color="#456d36"/>
    </linearGradient>
    <linearGradient id="trailLeaf" x1="0" x2="1" y1="0" y2="1">
      <stop offset="0" stop-color="#e6f9ba"/>
      <stop offset=".62" stop-color="#9bc66a"/>
      <stop offset="1" stop-color="#527f3f"/>
    </linearGradient>
  </defs>
  <g fill="none" stroke="url(#trailStem)" stroke-linecap="round" stroke-linejoin="round">
    <path d="M330 28C216 94 210 188 252 250c40 58 106 52 122 4 16-50-34-92-92-64-70 34-98 126-64 196 32 66 94 82 128 44 32-36 8-92-46-88-74 4-130 78-120 166 10 86 78 132 152 122" stroke-width="5"/>
    <path d="M248 148c-54 4-104 34-132 84" stroke-width="3.4"/>
    <path d="M224 334c-68 10-120 58-140 124" stroke-width="3.4"/>
    <path d="M184 516c-54 12-92 48-112 108" stroke-width="3.4"/>
    <path d="M286 92c28 42 36 84 22 128" stroke-width="2.8"/>
    <path d="M210 384c28 36 38 78 28 126" stroke-width="2.8"/>
  </g>
  <g fill="url(#trailLeaf)" opacity=".7">
    <path d="M252 96c34-42 88-58 132-38-34 42-78 56-132 38Z"/>
    <path d="M300 170c48-8 90 14 108 54-50 8-86-12-108-54Z"/>
    <path d="M120 236c34-36 84-48 124-30-34 38-76 48-124 30Z"/>
    <path d="M248 292c46 8 76 42 78 88-46-10-72-40-78-88Z"/>
    <path d="M88 460c34-42 86-58 128-38-32 42-76 56-128 38Z"/>
    <path d="M220 488c44 10 72 44 72 88-46-10-70-40-72-88Z"/>
    <path d="M70 628c30-36 76-50 116-34-30 38-70 50-116 34Z"/>
  </g>
  <g fill="#f4ffd9" opacity=".82">
    <circle cx="292" cy="196" r="10"/>
    <circle cx="310" cy="190" r="7"/>
    <circle cx="310" cy="208" r="7"/>
    <circle cx="214" cy="384" r="10"/>
    <circle cx="232" cy="378" r="7"/>
    <circle cx="230" cy="396" r="7"/>
    <circle cx="156" cy="560" r="9"/>
    <circle cx="172" cy="554" r="6"/>
    <circle cx="172" cy="570" r="6"/>
  </g>
</svg>
