<svg xmlns="http://www.w3.org/2000/svg" viewBox="0 0 420 760">
  <defs>
    <linearGradient id="hair" x1="0" x2="1" y1="0" y2="1">
      <stop offset="0" stop-color="#dff6b2"/>
      <stop offset=".48" stop-color="#8ec96e"/>
      <stop offset="1" stop-color="#3f7f56"/>
    </linearGradient>
    <linearGradient id="dress" x1="0" x2="1" y1="0" y2="1">
      <stop offset="0" stop-color="#fafff2"/>
      <stop offset=".54" stop-color="#e2f7cb"/>
      <stop offset="1" stop-color="#9fc783"/>
    </linearGradient>
    <linearGradient id="sun" x1="0" x2="1" y1="0" y2="1">
      <stop offset="0" stop-color="#fffbdc" stop-opacity=".92"/>
      <stop offset="1" stop-color="#b8e887" stop-opacity="0"/>
    </linearGradient>
  </defs>
  <g opacity=".78">
    <path fill="url(#sun)" d="M-12 74C86 4 230-6 362 42c-34 88-126 142-230 150C76 196 24 176-12 142Z"/>
    <g fill="none" stroke="#7ca65d" stroke-linecap="round" opacity=".36">
      <path d="M346 26C276 112 264 214 306 308c44 98 12 202-98 312" stroke-width="4"/>
      <path d="M304 112c42 14 72 40 90 78" stroke-width="3"/>
      <path d="M286 300c42 4 76 26 104 64" stroke-width="3"/>
      <path d="M230 560c52 4 92 26 122 68" stroke-width="3"/>
    </g>
    <g fill="#a9d982" opacity=".42">
      <path d="M320 110c38-18 76-10 100 22-40 16-72 8-100-22Z"/>
      <path d="M304 286c42 2 76 28 88 68-42-4-72-26-88-68Z"/>
      <path d="M196 612c38-24 80-22 110 6-38 24-76 22-110-6Z"/>
    </g>
  </g>
  <g transform="translate(86 124)">
    <path fill="#f8e7d7" d="M126 126c38 0 68 30 68 72 0 38-28 72-68 72s-70-34-70-72c0-42 30-72 70-72Z"/>
    <path fill="url(#hair)" d="M56 188c-18-92 38-154 116-138 58 12 88 58 82 116-4 42-24 74-52 96 4-42-8-76-34-104-18 26-52 38-98 36-10 28-12 58-4 90-32-20-48-52-10-96Z"/>
    <path fill="url(#hair)" d="M56 220c-26 42-34 110-8 178 22-62 40-108 72-144Zm146 20c34 46 48 100 40 166 40-62 34-134-12-190Z" opacity=".86"/>
    <path fill="#304135" d="M102 192c8-10 22-10 30 0-10 8-20 8-30 0Zm66 0c8-10 22-10 30 0-10 8-20 8-30 0Z"/>
    <path fill="#ec8f9c" d="M92 222c14 6 30 6 44 0-8 14-34 14-44 0Z" opacity=".58"/>
    <path fill="#f0a7ad" d="M70 214c10 0 18 6 18 14s-8 14-18 14-18-6-18-14 8-14 18-14Zm142 0c10 0 18 6 18 14s-8 14-18 14-18-6-18-14 8-14 18-14Z" opacity=".42"/>
    <path fill="url(#dress)" d="M86 292c24 28 76 30 106 0 26 52 44 132 50 236H40c6-106 22-184 46-236Z"/>
    <path fill="#fdfef6" d="M82 312c28 22 78 22 112 0l20 64c-44 30-106 30-152 0Z" opacity=".72"/>
    <path fill="#78a85e" d="M60 420h168c8 34 12 70 14 108H40c2-38 8-74 20-108Z" opacity=".3"/>
    <path fill="#f9ffe8" d="M70 470c40 14 96 16 144 2l10 56H58Z" opacity=".58"/>
    <path fill="none" stroke="#6f9958" stroke-linecap="round" stroke-width="6" d="M78 346c-28 18-48 48-58 92m186-90c30 18 50 46 64 86" opacity=".62"/>
    <g transform="translate(178 74)">
      <circle cx="0" cy="0" r="13" fill="#f5ffd8"/>
      <circle cx="16" cy="-2" r="10" fill="#d5f3a4"/>
      <circle cx="8" cy="14" r="9" fill="#c2e98e"/>
      <circle cx="-12" cy="10" r="9" fill="#e7f9bf"/>
      <circle cx="3" cy="6" r="5" fill="#6c9d4d"/>
    </g>
  </g>
</svg>
